<svg xmlns="http://www.w3.org/2000/svg" viewBox="0 0 256 256" width="256" height="256"><defs><clipPath id="artboard-161908051957190712"><rect x="0" y="0" width="256" height="256"/></clipPath><linearGradient id="13800299500330999730" x1="127.99999999999997" y1="1.279999999999952" x2="127.99999999999999" y2="254.71999999999994" gradientTransform="matrix(0.003945707,0,0,0.003945707,-0.005050505,-0.005050505)"><stop stop-color="#97d4ff" /><stop offset="0.059016" stop-color="#69c1fd" /><stop offset="0.921311" stop-color="#4b2da6" /><stop offset="1" stop-color="#5639ac" /></linearGradient><mask id="mask-1327952096393873262" mask-type="alpha">
<path d="" transform="matrix(0.999993484,0.003610026,-0.003610026,0.999993484,-0.549296398,-6.131477117)" fill="#fefefe" stroke="#87d6df" stroke-width="2"/></mask></defs><g>
<rect fill="#ffffff" x="0" y="0" width="256" height="256"/>
<g clip-path="url(#artboard-161908051957190712)">
	<g>
		<path d="M254.71999999999997,1.2799999999999443 L254.72000000000003,254.71999999999994 L1.2800000000000153,254.71999999999997 L1.279999999999987,1.2799999999999727 L254.71999999999997,1.2799999999999443 Z" fill="url('#13800299500330999730')"/>
	</g>
	<g>
		<path d="" fill="none"/>
	</g>
	<g>
		<path d="M27.470967917641918,147.2336671328238 C27.470967917641918,147.2336671328238 -29.89167998652974,208.8075994914707 -29.89167998652974,208.8075994914707 C-34.761193205753564,214.03460850404144 -30.462254115519723,220.54144497259057 -20.300441499238858,223.32481386871873 C-20.300441499238858,223.32481386871873 136.23777905588108,266.20137837555785 136.23777905588108,266.20137837555785 C146.39959167216196,268.98474727168605 158.60954983292402,266.9997764242544 163.47906305214784,261.77276741168373 C163.47906305214784,261.77276741168373 212.01668820183156,209.67174772359786 212.01668820183156,209.67174772359786 C216.88620142105538,204.44473871102716 212.58726233082155,197.93790224247803 202.42544971454066,195.15453334634987 C202.42544971454066,195.15453334634987 27.470967917641918,147.2336671328238 27.470967917641918,147.2336671328238 ZM30.963246111186002,166.7566898461926 C33.56249370655052,163.96661823220927 40.931475227145796,163.1403253896972 47.403967340306366,164.91317182059313 C47.403967340306366,164.91317182059313 182.7693498329486,201.99039509460516 182.7693498329486,201.99039509460516 C189.24184194610913,203.76324152550103 192.3880816060757,207.46970355387197 189.78883401071124,210.2597751678553 C189.78883401071124,210.2597751678553 173.30166917193833,227.95734683965807 173.30166917193833,227.95734683965807 C170.7024215765738,230.74741845364136 163.33344005597854,231.57371129615342 156.860947942818,229.80086486525752 C156.860947942818,229.80086486525752 21.49556545017576,192.7236415912455 21.49556545017576,192.7236415912455 C15.023073337015193,190.9507951603496 11.87683367704861,187.2443331319787 14.476081272413118,184.45426151799532 C14.476081272413118,184.45426151799532 30.963246111186002,166.7566898461926 30.963246111186002,166.7566898461926 ZM44.628288982626756,209.69473505669188 C45.87135060830005,208.36041393914684 48.98413481128372,207.8525776476915 51.57313165654794,208.56171622004985 C51.57313165654794,208.56171622004985 115.50219137902408,226.0721902968083 115.50219137902408,226.0721902968083 C118.0911882242883,226.7813288691666 119.18449248984612,228.44123283395666 117.94143086417284,229.7755539515017 C117.94143086417284,229.7755539515017 104.1430210941448,244.586975335953 104.1430210941448,244.586975335953 C102.89995946626523,245.9212964558663 99.78717526328157,246.42913274732163 97.19817841801735,245.71999417496332 C97.19817841801735,245.71999417496332 33.269118695541216,228.20952009820485 33.269118695541216,228.20952009820485 C30.680121850276983,227.50038152584654 29.586817584719167,225.8404775610565 30.829879212598716,224.5061564411432 C30.829879212598716,224.5061564411432 44.628288982626756,209.69473505669188 44.628288982626756,209.69473505669188 Z" fill="#fefefe"/>
	</g>
	<g>
		<path d="" transform="matrix(0.999993484,0.003610026,-0.003610026,0.999993484,-0.549296398,-6.131477117)" fill="#fefefe" stroke="#e987fe" stroke-width="2"/>
	</g>
	<g>
		<path d="M52.180357591065885,39.09365681720848 C30.98996172247234,116.45775770264952 20.394763788175556,155.13980814537007 20.394763788175556,155.13980814537007 C20.394763788175556,155.13980814537007 82.71981889837716,172.2109377158247 207.36992911878033,206.35319685673403 C210.89888023462598,207.31979338263972 214.48878700447557,205.4641268656494 215.37926613733012,202.2130730440149 C215.37926613733012,202.2130730440149 245.55104388518336,92.0588091948161 245.55104388518336,92.0588091948161 C246.44152301803794,88.80775537318158 244.2982900925534,85.38175457551534 240.76933897670773,84.41515804960964 C240.76933897670773,84.41515804960964 60.18969460961568,34.953533004489344 60.18969460961568,34.953533004489344 C56.66074349377002,33.98693647858366 53.07083672392044,35.842602995573955 52.180357591065885,39.09365681720848 ZM60.37025842490919,52.47392672148237 C61.09324202627368,49.834383004539305 64.22014397008331,48.38589400980504 67.34659878202277,49.242244880196054 C67.34659878202277,49.242244880196054 227.33014056701697,93.06249928868107 227.33014056701697,93.06249928868107 C230.45659537895645,93.91885015907211 232.40893699183033,96.75856816632349 231.68595339046584,99.39811188326655 C231.68595339046584,99.39811188326655 207.18936530348682,188.832803139741 207.18936530348682,188.832803139741 C206.46638170212233,191.47234685668406 203.33947975831273,192.92083585141833 200.21302494637328,192.06448498102728 C200.21302494637328,192.06448498102728 40.22948316137904,148.2442305725423 40.22948316137904,148.2442305725423 C37.103028349439576,147.38787970215122 35.150686736565696,144.54816169489987 35.873670337930186,141.9086179779568 C35.873670337930186,141.9086179779568 60.37025842490919,52.47392672148237 60.37025842490919,52.47392672148237 Z" fill="#fefefe"/>
	</g>
	<g>
		<path d="" transform="matrix(0.999993484,0.003610026,-0.003610026,0.999993484,-0.549296398,-6.131477117)" fill="#fefefe" stroke="#87d6df" stroke-width="2"/>
	</g>
	<g>
		<path d="" transform="matrix(0.999993484,0.003610026,-0.003610026,0.999993484,-0.549296398,-6.131477117)" fill="#fefefe" stroke="#87d6df" stroke-width="2"/>
	</g>
	<g>
		<path d="" transform="matrix(0.999993484,0.003610026,-0.003610026,0.999993484,-0.549296398,-6.131477117)" fill="#fefefe" stroke="#87d6df" stroke-width="2"/>
	</g>
	<g mask="url(#mask-1327952096393873262)"/>
	<g>
		<path d="M332.9163804679373,-71.951122571925 L333.38870324885124,-71.94941746310316 L333.3869981400294,-71.47709468218923 L332.91467535911545,-71.47879979101107 L332.9163804679373,-71.951122571925 Z" transform="matrix(1,0,0,1,0,0)" fill="#fefefe"/>
	</g>
	<g>
		<path d="M-14.99043713040365,-48.740450412231475 L-14.518114349489727,-48.738745303409644 L-14.519819458311558,-48.26642252249572 L-14.992142239225482,-48.268127631317554 L-14.99043713040365,-48.740450412231475 Z" transform="matrix(1,0,0,1,0,0)" fill="#fefefe"/>
	</g>
	<g>
		<path d="M59.05361842648543,97.23859668797414 Q57.896912597095955,96.92417838935842 57.40726361950904,96.10910431989795 Q56.91761464192212,95.29403025043749 57.232032940537835,94.137324421048 Q57.54645123915355,92.98061859165854 58.38134383874987,92.52558429943645 Q59.21623643834619,92.07055000721436 60.37294226773567,92.38496830583007 Q83.20767617027137,98.59195542438495 83.20767617027137,98.59195542438495 Q84.42335131645325,98.92240289116538 84.8812475849981,99.72884587007562 Q85.34367995483467,100.53652186192161 85.02926165621896,101.69322769131108 Q84.71484335760326,102.84993352070055 83.90716736575726,103.31236589053712 Q83.104027475203,103.77603127330946 81.88835232902113,103.44558380652902 Q59.05361842648543,97.23859668797414 59.05361842648543,97.23859668797414 ZM56.06972712197553,108.21596181394482 Q54.91302129258606,107.90154351532911 54.42337231499914,107.08646944586863 Q53.93372333741223,106.27139537640815 54.24814163602794,105.11468954701868 Q54.56255993464365,103.95798371762922 55.39005445662549,103.53016603315747 Q56.217548978607326,103.10234834868572 57.3742548079968,103.41676664730144 Q80.20898871053251,109.62375376585632 80.20898871053251,109.62375376585632 Q81.42466385671437,109.95420123263675 81.88995820287371,110.73342760379664 Q82.35978865032479,111.51388698789228 82.04537035170907,112.67059281728174 Q81.71615589786438,113.8817318621719 80.91587798363288,114.31694762425815 Q80.12013617069312,114.75339639928012 78.90446102451124,114.4229489324997 Q56.06972712197553,108.21596181394482 56.06972712197553,108.21596181394482 ZM89.75623947736341,118.08390718083018 Q88.10056250588435,117.6338574592822 87.84440458897322,116.49742177584801 Q87.59278277335382,115.36221910534957 88.52102306341143,114.1336718908269 Q103.97854487884013,94.52464267030268 103.97854487884013,94.52464267030268 Q104.80796348771013,93.44459894705307 105.7753304104148,93.147355652811 Q106.74393034605521,92.8455762572772 107.9596054922371,93.17602372405763 Q110.33198646780843,93.82088948945378 110.71011919575767,96.35443386695255 Q114.11370655131498,121.09033087431649 114.11370655131498,121.09033087431649 Q114.34670819193856,122.63452940039063 113.55049060916986,123.48490608273131 Q112.75880912769287,124.33651577800774 111.04869894071314,123.87166990123077 Q110.16415918882707,123.63123237875993 109.67592387050368,123.02600682007255 Q109.19345766640777,122.41747817302918 109.02370097816288,121.07070770520676 Q105.61344127673922,95.26619072587476 105.61344127673922,95.26619072587476 C105.61344127673922,95.26619072587476 108.979228435198,96.1810863241997 108.979228435198,96.1810863241997 C108.979228435198,96.1810863241997 92.92054139254472,116.69351178330174 92.92054139254472,116.69351178330174 Q92.09235579661046,117.76901940525964 91.39089956356656,118.05573167607281 Q90.69521244475015,118.33914085852999 89.75623947736341,118.08390718083018 Q89.75623947736341,118.08390718083018 89.75623947736341,118.08390718083018 ZM116.71348917833707,137.67245085729928 Q115.77905231224204,137.41845019253523 115.30182378717649,136.66520741618993 Q114.8233622491752,135.91650074113636 115.06379977164605,135.03196098925028 Q115.30300428118115,134.15195733865593 116.10328219541262,133.7167415765697 Q116.90356010964413,133.28152581448347 117.83799697573915,133.53552647924755 Q139.73829401217984,139.48851293303835 139.73829401217984,139.48851293303835 Q140.67726697956658,139.74374661073816 141.11534471797557,140.51557490428357 Q141.5579585576763,141.2886362107647 141.31875404814122,142.16863986135905 Q141.07831652567037,143.05317961324513 140.31388630973947,143.4640407439038 Q139.5527591821645,143.88067098878992 138.61378621477775,143.6254373110901 Q116.71348917833707,137.67245085729928 116.71348917833707,137.67245085729928 ZM150.43113035545588,134.57668820939395 Q148.77545338397684,134.12663848784598 148.51929546706572,132.9902028044118 Q148.2676736514463,131.85500013391334 149.19591394150393,130.62645291939066 Q164.6534357569326,111.01742369886645 164.6534357569326,111.01742369886645 Q165.4828543658026,109.93737997561685 166.4502212885073,109.64013668137477 Q167.41882122414768,109.33835728584097 168.63449637032957,109.6688047526214 Q171.00687734590093,110.31367051801755 171.38501007385014,112.84721489551632 Q174.78859742940745,137.58311190288026 174.78859742940745,137.58311190288026 Q175.02159907003104,139.12731042895442 174.22538148726233,139.9776871112951 Q173.43370000578534,140.8292968065715 171.72358981880564,140.36445092979454 Q170.83905006691955,140.1240134073237 170.35081474859618,139.51878784863632 Q169.86834854450024,138.91025920159296 169.69859185625535,137.56348873377053 Q166.28833215483172,111.75897175443853 166.28833215483172,111.75897175443853 C166.28833215483172,111.75897175443853 169.6541193132905,112.67386735276347 169.6541193132905,112.67386735276347 C169.6541193132905,112.67386735276347 153.59543227063722,133.18629281186554 153.59543227063722,133.18629281186554 Q152.76724667470296,134.2618004338234 152.06579044165903,134.54851270463658 Q151.37010332284262,134.83192188709376 150.43113035545588,134.57668820939395 Q150.43113035545588,134.57668820939395 150.43113035545588,134.57668820939395 ZM185.91929935340607,131.72350247497113 Q184.7625935240166,131.4090841763554 184.2729445464297,130.59401010689493 Q183.7832955688428,129.77893603743445 184.09771386745848,128.62223020804498 Q184.4121321660742,127.46552437865552 185.24702476567052,127.01049008643344 Q186.08191736526683,126.55545579421134 187.23862319465633,126.86987409282706 Q210.073357097192,133.07686121138192 210.073357097192,133.07686121138192 Q211.28903224337387,133.40730867816237 211.74692851191872,134.2137516570726 Q212.2093608817553,135.02142764891857 211.8949425831396,136.17813347830807 Q211.5805242845239,137.33483930769754 210.7728482926779,137.7972716775341 Q209.96970840212367,138.26093706030645 208.7540332559418,137.930489593526 Q185.91929935340607,131.72350247497113 185.91929935340607,131.72350247497113 ZM182.9354080488962,142.7008676009418 Q181.7787022195067,142.38644930232607 181.28905324191982,141.57137523286562 Q180.79940426433288,140.75630116340514 181.1138225629486,139.59959533401567 Q181.4282408615643,138.4428895046262 182.25573538354615,138.01507182015445 Q183.08322990552796,137.5872541356827 184.23993573491745,137.9016724342984 Q207.07466963745316,144.10865955285328 207.07466963745316,144.10865955285328 Q208.29034478363502,144.43910701963372 208.75563912979436,145.21833339079362 Q209.2254695772454,145.99879277488927 208.9110512786297,147.15549860427873 Q208.581836824785,148.3666376491689 207.78155891055354,148.80185341125514 Q206.98581709761373,149.2383021862771 205.77014195143187,148.90785471949667 Q182.9354080488962,142.7008676009418 182.9354080488962,142.7008676009418 Z" fill="#ffffff"/>
	</g>
</g></g></svg>