<svg xmlns="http://www.w3.org/2000/svg" viewBox="0 0 256 256" width="256" height="256"><defs><clipPath id="artboard-6712526540527478621"><rect x="0" y="0" width="256" height="256"/></clipPath><linearGradient id="13511139126919868820" x1="134.0844351608369" y1="254.71999999999994" x2="134.0844351608369" y2="1.2799999999999443" gradientTransform="matrix(0.003945707,0,0,0.003945707,-0.029057904,-0.005050505)"><stop stop-color="#ff6bf9" /><stop offset="0.131148" stop-color="#b300ac" /><stop offset="0.885246" stop-color="#ff7cab" /><stop offset="1" stop-color="#ffb6d0" /></linearGradient></defs><g>
<rect fill="#ffffff" x="0" y="0" width="256" height="256"/>
<g clip-path="url(#artboard-6712526540527478621)">
	<g transform="matrix(1,0,0,1,-6.084435161,0)">
		<path d="M7.364435160836891,254.71999999999994 L7.364435160836919,1.2799999999999443 L260.80443516083693,1.2799999999999727 L260.8044351608369,254.71999999999997 L7.364435160836891,254.71999999999994 Z" fill="url('#13511139126919868820')"/>
	</g>
	<g transform="matrix(1,0,0,1,-6.084435161,0)">
		<path d="M98.68003897,179.44203591000002 C114.04924585,189.19458933 144.76944415,208.79472627 143.80060554,209.03550119 C142.51025004000002,209.3561792 131.92796392,251.62345911 141.24134745,270.15087950000003 C146.47950036,280.57130946 181.1895532,290.43594231000003 208.19606378,276.19939937 C236.51075744,261.27324478 254.42663929,118.86423766 246.82361473,110.22631482 C239.40690926,101.80007221 227.16565241,94.18574307 221.35522407,90.68845919 C217.83370464,88.56886447000001 191.25685478,90.2622293 191.25685478,90.2622293 C191.25685478,90.2622293 166.77169324,75.85505065 166.77169324,75.85505065 C166.77169324,75.85505065 136.66430796,57.32233214 136.66430796,57.32233214 C136.66430796,57.32233214 125.71935634,33.04467847 122.19783691,30.92508376 C116.38740857,27.42779987 103.92846706,20.17513457 93.01056642,17.56581856 C81.81839125,14.89095249 -35.63611162,97.38788508 -35.57094036,129.39581722 C-35.5087801,159.92493292 -10.5431046,185.97898819 1.1171461200000001,185.72966977000002 C21.84895543,185.28638411 54.24509105,156.14881168 53.924413040000005,154.85845618 C53.69582546,153.93865741 82.25708048,170.08980026 98.68003897,179.44203591000002 ZM184.91827334,168.95244718 C190.05735349,172.04564809000001 191.71922286,178.73273667 188.62602195,183.87181683 C185.53282104000002,189.01089699 178.84573245,190.67276635000002 173.7066523,187.57956544 C168.56757214,184.48636453 166.90570277,177.79927595 169.99890368,172.66019579000002 C173.0921046,167.52111563 179.77919318,165.85924627 184.91827334,168.95244718 ZM181.3080964,154.42568989 C178.21489549,159.56477005 171.52780691,161.22663941 166.38872675,158.1334385 C161.2496466,155.04023759 159.58777723,148.35314901 162.68097814,143.21406885 C165.77417905000001,138.07498869 172.46126763,136.41311933 177.60034779,139.50632024 C182.73942795,142.59952115000002 184.40129731,149.28660973 181.3080964,154.42568989 ZM195.83485369000002,150.81551296 C190.69577354,147.72231205 189.03390417,141.03522346 192.12710508,135.89614331 C195.22030599,130.75706315 201.90739457,129.09519378000002 207.04647473,132.18839469 C212.18555489,135.28159561 213.84742425000002,141.96868419 210.75422334,147.10776435 C207.66102243,152.2468445 200.97393385,153.90871387 195.83485369000002,150.81551296 ZM199.44503062,165.34227025 C202.53823154,160.20319009 209.22532012,158.54132072000002 214.36440028,161.63452163 C219.50348043,164.72772255 221.1653498,171.41481113 218.07214889,176.55389129 C214.97894798000002,181.69297144 208.29185939,183.35484081 203.15277924,180.2616399 C198.01369908,177.16843899 196.35182971,170.4813504 199.44503062,165.34227025 ZM61.71489804,94.7966097 C61.71489804,94.7966097 52.044354240000004,88.97593090000001 52.044354240000004,88.97593090000001 C48.91162321,87.09034707 47.76380968,83.23784911 49.48350072,80.38073431000001 C49.48350072,80.38073431000001 53.97140108,72.92448419 53.97140108,72.92448419 C55.69109213,70.06736938 59.632718510000004,69.27819399 62.76544954,71.16377783 C62.76544954,71.16377783 72.43599334,76.98445663 72.43599334,76.98445663 C72.43599334,76.98445663 78.25667214,67.31391283 78.25667214,67.31391283 C80.14225598,64.1811818 83.99475393,63.033368270000004 86.85186873,64.75305931 C86.85186873,64.75305931 94.30811885,69.24095967 94.30811885,69.24095967 C97.16523366,70.96065072 97.95440905,74.9022771 96.06882521,78.03500813000001 C96.06882521,78.03500813000001 90.24814641,87.70555193 90.24814641,87.70555193 C90.24814641,87.70555193 99.91869021000001,93.52623073000001 99.91869021000001,93.52623073000001 C103.05142124,95.41181457 104.19923477,99.26431252 102.47954373,102.12142732 C102.47954373,102.12142732 97.99164337,109.57767744 97.99164337,109.57767744 C96.27195232,112.43479225 92.33032594000001,113.22396764 89.19759491,111.3383838 C89.19759491,111.3383838 79.52705111,105.517705 79.52705111,105.517705 C79.52705111,105.517705 73.70637231,115.1882488 73.70637231,115.1882488 C71.82078847,118.32097983 67.96829052,119.46879336 65.11117572,117.74910232 C65.11117572,117.74910232 57.6549256,113.26120196000001 57.6549256,113.26120196000001 C54.79781079,111.54151092000001 54.0086354,107.59988453 55.89421924,104.46715350000001 C55.89421924,104.46715350000001 61.71489804,94.7966097 61.71489804,94.7966097 Z" fill="#fefefe"/>
	</g>
</g></g></svg>