<svg xmlns="http://www.w3.org/2000/svg" viewBox="0 0 255 255" width="255" height="255"><defs><clipPath id="artboard-16190996417083114456"><rect x="0" y="0" width="256" height="256"/></clipPath><linearGradient id="14579001700751019080" x1="121.47121339465463" y1="259.45676956198724" x2="121.47121339465465" y2="-10.249932060035917" gradientTransform="matrix(0.003716677,0,0,0.003707731,0.048530777,0.038003995)"><stop stop-color="#ff9869" /><stop offset="0.091803" stop-color="#ff783b" /><stop offset="0.891803" stop-color="#ffd84e" /><stop offset="1" stop-color="#ffeaa1" /></linearGradient></defs><g>
<rect fill="#ffffff" x="0" y="0" width="256" height="256"/>
<g clip-path="url(#artboard-16190996417083114456)">
	<g>
		<path d="M-13.057573210690663,259.45676956198724 L-13.057573210690663,-10.249932060035931 L255.99999999999991,-10.249932060035931 L255.99999999999991,259.45676956198724 L-13.057573210690663,259.45676956198724 Z" fill="url('#14579001700751019080')"/>
	</g>
	<g>
		<g transform="matrix(0.76147426,0.648195149,-0.648195149,0.76147426,48.210808641,17.80916554)">
			<g transform="matrix(1,0,0,1,42.538685587,0)">
				<path d="M42.92262882590319,228.00113594872008 C42.92262882590319,228.00113594872008 42.922628825903196,107.26557612090127 42.922628825903196,107.26557612090127" fill="none" stroke="#ffffff" stroke-width="8" stroke-linecap="round"/>
			</g>
			<g transform="matrix(1,0,0,1,42.538685587,0)">
				<path d="M42.92262882590319,228.00113594872008 C42.92262882590319,228.00113594872008 42.9226288259032,107.26557612090129 42.9226288259032,107.26557612090129" transform="matrix(1,0,0,1,85.077371174,0)" fill="none" stroke="#ffffff" stroke-width="8" stroke-linecap="round"/>
			</g>
			<g transform="matrix(1,0,0,1,42.538685587,0)">
				<path d="M42.92262882590319,107.26557612090126 C42.92262882590319,107.26557612090126 85.46131441295152,47.97199276741236 85.46131441295152,47.97199276741236" fill="none" stroke="#fefefe" stroke-width="8" stroke-linecap="round"/>
			</g>
			<g transform="matrix(1,0,0,1,42.538685587,0)">
				<path d="M127.99999999999994,107.26557612090143 C127.99999999999994,107.26557612090143 85.46131441295154,47.97199276741237 85.46131441295154,47.97199276741237" fill="none" stroke="#fefefe" stroke-width="8" stroke-linecap="round"/>
			</g>
		</g>
		<g transform="matrix(0.76147426,0.648195149,-0.648195149,0.76147426,48.210808641,17.80916554)">
			<path d="M170.5386855870484,107.26557612090123 C170.5386855870484,107.26557612090123 141.00159399380306,94.3295409326491 141.00159399380306,94.3295409326491" fill="none" stroke="#fefefe" stroke-width="8" stroke-linecap="round"/>
		</g>
		<g transform="matrix(0.76147426,0.648195149,-0.648195149,0.76147426,48.210808641,17.80916554)">
			<path d="M170.5386855870484,107.26557612090124 C170.5386855870484,107.26557612090124 141.00159399380306,94.3295409326491 141.00159399380306,94.3295409326491" transform="matrix(-1,0,0,1,256,0)" fill="none" stroke="#fefefe" stroke-width="8" stroke-linecap="round"/>
		</g>
		<g transform="matrix(0.76147426,0.648195149,-0.648195149,0.76147426,48.210808641,17.80916554)">
			<path d="M114.99840600619714,94.32954093264922 C114.99840600619714,94.32954093264922 141.00159399380303,94.32954093264908 141.00159399380303,94.32954093264908" fill="none" stroke="#fefefe" stroke-width="8" stroke-linecap="round"/>
		</g>
		<g transform="matrix(0.76147426,0.648195149,-0.648195149,0.76147426,48.210808641,17.80916554)">
			<path d="M85.46131441295165,228.00113594872005 C85.46131441295165,228.00113594872005 170.53868558704835,228.00113594871996 170.53868558704835,228.00113594871996" fill="none" stroke="#fefefe" stroke-width="8"/>
		</g>
		<g transform="matrix(0.76147426,0.648195149,-0.648195149,0.76147426,48.210808641,17.80916554)">
			<path d="M87.95647882706473,109.71517588438132 C89.40486698771153,107.26557612090139 114.99840600619714,96.8113819435942 114.99840600619714,96.8113819435942 C114.99840600619714,96.8113819435942 143.12678277360976,96.8113819435942 143.12678277360976,96.8113819435942 C143.12678277360976,96.8113819435942 168.53936255164092,109.71517588438132 168.53936255164092,109.71517588438132 C168.53936255164092,109.71517588438132 168.53936255164092,226.37601891431393 168.53936255164092,226.37601891431393 C168.53936255164092,226.37601891431393 87.95647882706473,226.37601891431393 87.95647882706473,226.37601891431393 C87.95647882706473,226.37601891431393 87.95647882706473,109.71517588438132 87.95647882706473,109.71517588438132 Z" fill="#fefefe"/>
		</g>
		<g transform="matrix(0.76147426,0.648195149,-0.648195149,0.76147426,48.210808641,17.80916554)">
			<path d="M109.96593450050347,77.61878444415676 C109.96593450050347,77.61878444415676 121.47121339465461,73.66812280496254 127.99999999999996,73.66812280496254 C134.52878660534532,73.66812280496254 145.96624655655387,77.50438270866537 145.96624655655387,77.50438270866537 C145.96624655655387,77.50438270866537 128.24792068935278,51.65573555002546 128.24792068935278,51.65573555002546 C128.24792068935278,51.65573555002546 109.96593450050347,77.61878444415676 109.96593450050347,77.61878444415676 Z" fill="#fefefe"/>
		</g>
	</g>
	<g>
		<path d="M207.28366925026086,107.44384161752532 L207.28366925026086,107.57551098537303 L207.15198983668432,108.3655472839169 L207.02033051456544,109.41891227242738 L207.02033051456544,110.07726915739471 L207.02033051456544,110.20893852524242 L207.02033051456544,110.60395667451436 L207.02033051456544,110.86729541020975 L207.02033051456544,110.99897482378628 L207.02033051456544,112.18400918014444 L206.23029421602155,116.79250737491589 L205.3085985953588,118.63590866197023 L205.04525985966342,119.16259617908986 L205.04525985966342,119.42593491478527 L204.91358044608685,119.82095306405722 L204.91358044608685,122.1910418682312 L204.91358044608685,122.84939875319856 L204.91358044608685,123.11273748889394 L204.91358044608685,124.56112062667634 L205.04525985966342,125.35114687949141" transform="matrix(1,0,0,1,2,-6)" fill="none" stroke="#fefefe" stroke-width="8" stroke-linecap="round" stroke-linejoin="round"/>
	</g>
	<g>
		<path d="M130.12423429550466,109.945599789547 L130.12423429550466,110.07726915739471 L129.86089555980925,110.73562604236207 L129.59755682411387,110.99897482378628 L129.46587741053733,111.3939829273294 L129.33420804268962,111.78900107660135 L128.9391999391465,112.44735796156868 L128.67585115772226,112.97404547868834 L128.28084305417917,113.6324023636557 L128.14916364060264,114.1590798350465 L127.88582490490722,114.9491161335904 L127.49080675563528,116.26582990352509 L127.22746801993986,117.31919489203554 L126.96412928424448,118.37256992627482 L126.83244987066794,119.55761432836181 L126.83244987066794,120.34764058117688 L126.83244987066794,121.00599746614421 L126.83244987066794,121.79602371895925 L126.96412928424448,122.58604997177432 L127.22746801993986,123.24440685674165 L127.49080675563528,124.29778189098096 L127.88582490490722,124.82446940810058 L128.41251242202688,125.61449566091565 L129.0708693069942,126.14118317803528 L129.59755682411387,126.5361912815784 L130.5192524447766,126.93120943085034 L131.8359662147113,127.85290505151309 L133.67936750176565,128.37959256863275 L135.52276878881997,128.90628008575237 L137.49783944372203,129.3012881892955 L139.47291009862406,129.3012881892955 L140.52627508713454,129.16961882144778 L141.71131948922152,128.64293130432813 L143.15970262700392,128.11625383293733 L144.6080857647863,127.06287879869805 L145.6614607990256,126.40452191373069 L146.31981768399297,125.61449566091565 L146.8465052011126,125.2194775116437 L147.2415133046557,124.56112062667634 L148.4265577067427,122.45438060392661 L149.21658395955774,121.66435435111157 L149.47993274098198,120.8743280982965 L150.00662025810163,119.95262243190493 L150.13828962594934,119.42593491478527 L150.40162836164473,119.16259617908986 L150.40162836164473,118.76757802981794 L150.40162836164473,118.63590866197023 L150.53329772949243,118.63590866197023 L150.53329772949243,118.76757802981794 L150.66497714306897,122.71771933962202 L150.66497714306897,125.48282629306794 L150.66497714306897,127.19454816654573 L150.66497714306897,127.9845744193608 L150.92831587876438,128.51126193648042 L151.0599852466121,129.3012881892955 L151.45500339588403,130.09132448783936 L151.71834213157945,130.48633259138248 L152.24502964869907,130.88135074065443 L153.29840468293838,131.40803825777405 L153.95676156790572,131.80304636131717 L155.14179592426387,131.93471572916488 L156.19517095850316,132.32973387843683 L157.64355409628556,132.46140324628453 L158.56525976267716,132.72475202770877 L159.6186247511876,132.98809076340416 L160.8036691532746,133.25142949909957 L161.98871355536158,133.3831089126761 L164.22712294595902,133.11976013125187 L165.54383671589372,132.5930726141322 L167.12389926725265,131.53970762562176 L168.04559488791543,130.88135074065443 L168.70395177288276,129.82797570641512 L169.4939780256978,128.77461071790466 L170.02066554281745,128.11625383293733 L170.15233491066516,127.85290505151309 L170.4156836920894,127.45789694796997 L170.67902242778482,126.93120943085034 L171.07404057705673,126.27285254588298 L171.8640668298718,124.95613877594829 L172.2590749334149,124.42945125882866 L172.78576245053455,123.6394250060136 L173.1807805998065,122.84939875319856 L173.3124499676542,122.45438060392661 L173.4441193355019,122.1910418682312 L173.70746811692612,122.05936245465466" fill="none" stroke="#fefefe" stroke-width="8" stroke-linecap="round" stroke-linejoin="round"/>
	</g>
	<g>
		<path d="M116.90245541581754,28.579603132054473 L115.8688351064188,29.19977374051429 L115.45538540547989,29.19977374051429 L114.42176509608115,29.613223441453215 L113.59487358010044,29.819944348974104 L112.97470297164062,30.23339404991303 L111.11418326036404,30.646843750851943 L110.2872838584862,31.26701435931176 L109.4603923425055,31.680464060250685 L108.63349294062766,32.0939137611896 L107.18642293029,32.9208052771703 L105.94608171337038,33.747704679048155 L102.22505017671435,36.64183681382633 L99.12418924851815,38.91580622604182 L96.02332832032194,41.1897677523602 L93.95608770152447,43.050287463636764 L92.09556799024789,44.70407838149532 L89.82160646392953,47.184768701231704 L88.37453645359187,49.04528052661115 L86.92746644325422,50.69907933036684 L86.10057492727351,51.52597084634755 L85.48039643291656,52.9730408566852 L84.65350491693584,54.420110867022856 L84.24005521599693,55.24700238300356 L83.61988460753712,56.280622692402304 L83.20643490659819,57.72769270273996 L82.58626429813837,58.347863311199774 L82.17281459719946,60.208383022476355 L80.72574458686181,62.68907334221274 L80.10557397840199,64.3428642600713 L79.48540336994218,65.78993427040895 L79.07195366900325,67.2370042807466 L78.24505426712541,70.3378652089428 L76.38454244174596,75.91940857097826 L75.1441933389292,78.40010677661179 L74.73075152388742,79.84716890105231 L74.5240227304694,81.08751011797195 L73.90385212200958,82.74130892172764 L73.49040242107066,83.3614716442903 L73.28368151354977,84.6018286330042 L72.66351090508995,86.25561166496563 L72.45678211167191,87.08251106684347 L72.25006120415102,87.49595288188524 L71.62989059569121,89.14975168564094 L71.42316180227319,89.97665108751879 L70.80299119381337,91.21699230443839 L70.59627028629248,92.04389170631624 L70.38954149287444,92.8707911081941 L69.76937088441464,93.90441141759284 L69.56264997689374,95.35147354203336 L68.94247148253679,97.00527234578904 L68.7357505750159,98.45233447022956 L68.52902966749501,100.10613327398524 L68.52902966749501,101.13975358338398 L68.52902966749501,104.03387783226502 L68.52902966749501,106.30785513037766 L68.52902966749501,107.54819634729726 L68.94247148253679,110.02887878113653 L70.59627028629248,112.92301880181184 L72.66351090508995,116.43732154504984 L74.73075152388742,118.91801975068337 L75.97109274080705,120.57180278264478 L77.4181627511447,122.43232249392135 L79.69212427746307,124.08612129767705 L81.55264398873965,125.73990432963846 L83.61988460753712,126.98026131835236 L87.13419523667224,129.04750193714983 L89.6148776705115,130.08112224654855 L91.68211828930897,130.90800587663216 L94.3695374024634,132.14836286534603 L96.02332832032194,132.9752464954296 L97.6771192381805,133.80214589730747 L99.53763894945706,134.4223243916644 L101.81160047577544,135.24922379354223 L103.25867048611309,135.662665608584 L105.11918231149252,136.4895650104619 L106.77298111524821,137.3164644123397 L108.22004323968874,137.7299062273815 L109.4603923425055,138.14334804242327 L111.52763296130297,138.7635265367802 L113.59487358010044,139.3837050311372 L118.3495254261552,140.21058866122075 L125.99830940698813,142.4845659593334 L128.89244942766345,143.724907176253 L130.9596900464609,144.34506989881567 L133.64710915961533,145.5854268875296 L134.68072946901407,145.79214779505048 L136.74797008781152,146.41231051761315 L138.60848979908812,146.6190471969283 L141.50261404796916,147.23920991949103 L143.7765913460818,147.65266750632708 L146.25727377992104,147.85938841384797 L149.15141380059637,148.06610932136886 L151.6320962344356,148.47955113641063 L153.6993368532331,148.6862878157258 L155.55985656450966,149.09972963076757 L157.42037627578625,149.30645053828846 L159.9010587096255,149.51317144580935 L164.6557184415774,150.13334994016634 L171.89106060736853,150.96024934204416 L180.98692248443626,152.20059055896377 L190.2895052690249,153.02748996084165 L198.76518865173566,153.44093177588343 L203.72656929120845,153.44093177588343 L207.44759294196732,153.44093177588343 L210.34173296264262,153.44093177588343 L214.88965601527937,153.02748996084165 L217.3703542209129,152.40731146648466 L219.0241372528743,151.99386965144288 L220.2644942415882,151.787148743922 L222.53845576790656,150.96024934204416 L224.19223879986797,150.54679175520812 L227.2930997280642,149.09972963076757 L229.15361943934076,148.06610932136886 L230.60069733557555,147.23920991949103 L231.84103855249518,146.41231051761315 L232.66793795437303,145.5854268875296 L233.2881006769357,144.96524839317266 L234.11500007881355,144.55180657813088 L234.94189948069138,143.724907176253 L236.59568251265281,141.86438746497646 L237.62930282205153,140.8307671555777 L238.45620222392938,139.5904259386581 L239.90328012016417,137.7299062273815 L240.73016375024775,135.662665608584 L241.1436213370838,133.38870408226563 L241.76378405964647,131.5281843709891 L242.17724164648254,130.28784315406944 L242.7974043690452,127.80714494843592 L243.41758286340217,125.73990432963846 L243.83102467844395,123.46594280332009 L244.4512031728009,122.01888067887957 L244.65792408032178,120.36508187512389 L245.07138166715785,118.29784125632641 L245.27810257467874,116.23060063752895 L245.27810257467874,114.16336001873147 L245.27810257467874,112.71629789429095 L245.27810257467874,111.06249909053527 L245.07138166715785,109.61543696609475 L244.4512031728009,107.54819634729726 L243.41758286340217,104.03387783226502 L242.17724164648254,99.69267568714919 L241.3503422446047,96.38509385143207 L239.90328012016417,92.04389170631624 L238.86965981076543,88.52957319128399 L237.42258191453064,85.63544894240295 L236.59568251265281,83.77492923112636 L235.76879888256923,82.12113042737069 L234.52844189385533,78.81354859165359 L232.66793795437303,74.47234644653774 L231.22086005813824,71.16476461082065 L229.56707702617683,67.65044609578838 L226.87965791302238,63.51596485819344 L224.81241729422493,60.00166211495545 L223.15861849046925,56.694072393341216 L221.29811455098692,53.38649055762413 L219.43759483971036,49.252009320029174 L217.5770751284338,45.73769869089405 L217.3703542209129,44.083907773035506 L216.54345481903505,42.84355867021874 L216.13001300399327,40.98304684483929 L215.09639269459453,39.32925592698075 L214.68293510775848,38.50235652510291 L214.47621420023756,37.67545712322506 L214.06277238519579,37.05528651476526 L213.85603570588063,36.64183681382633 L213.85603570588063,36.43511590630544 L213.85603570588063,36.22839499878454 L213.64931479835974,35.60821650442759 L213.44259389083885,34.57459619502886 L213.23587298331796,34.16115437998707 L213.02915207579704,34.16115437998707 L210.75517477768443,34.78132498844688 L208.68793415888695,35.814945297845625 L205.38035232316986,37.46873621570417 L202.8996698893306,39.12252713356273 L201.4525919930958,40.36287623637948 L200.0055298686553,41.60321745329911 L198.97190955925655,42.63683776269785 L197.9382892498578,43.25700837115767 L197.31811075550087,44.083907773035506 L196.49122712541728,44.91079928901621 L196.07776953858124,45.32424898995514 L195.45760681601857,45.94441959841495 L195.0441492291825,46.5645980927719 L193.59708710474197,48.01166021721242 L192.35674588782234,48.83855961909026 L187.39536524834958,52.9730408566852 L185.74156644459387,54.420110867022856 L184.70794613519516,55.66045208394249 L183.8810467333173,57.10752209428014 L183.05416310323372,57.93442149615798 L182.43398460887678,58.5545921046178 L181.60708520699893,59.3814836205985 L180.98692248443626,60.00166211495545 L180.1600230825584,60.415103929997244 L179.95330217503752,60.415103929997244 L177.88606155624007,60.208383022476355 L175.19864244308565,59.79493332153743 L173.75158031864513,59.3814836205985 L169.82381998857107,58.14114240367887 L167.96330027729448,57.52097179521907 L166.92967996789577,57.31424300180103 L165.27588116414006,56.48735148582033 L163.62209813217865,55.86718087736051 L160.93467901902423,55.04028147548267 L158.45399658518497,54.21338207360483 L157.21365536826534,53.79994025856304 L155.97329837955144,53.38649055762413 L154.73295716263183,53.17976176420609 L153.6993368532331,53.17976176420609 L152.04555382127168,52.76631994916431 L149.9783132024742,52.559591155746276 L148.32451439871852,52.352870248225386 L146.877452274278,51.93942054728646 L144.60347497616536,51.52597084634755 L141.50261404796916,51.11252114540862 L140.26227283104953,51.11252114540862 L138.815210706609,51.11252114540862 L137.57486948968938,51.11252114540862 L136.33451250097548,51.11252114540862 L135.30089219157674,50.90580023788773 L134.26727188217802,50.90580023788773 L133.44038825209444,50.90580023788773 L131.99331035585965,50.07890083600989 L129.71934882954127,48.83855961909026 L128.27228670510075,47.39148960875261 L127.65210821074382,46.77131900029279 L126.82520880886597,45.53097778337316 L125.99830940698813,44.70407838149532 L124.7579681900685,43.25700837115767 L123.31090606562798,41.60321745329911 L121.86382816939319,39.949426535440566 L121.03694453930962,38.91580622604182 L120.21004513743178,37.67545712322506 L120.00332422991087,37.05528651476526 L119.58986664307483,36.84856560724435 L119.58986664307483,36.64183681382633 L119.38314573555392,36.22839499878454 L118.96970392051215,35.4014955969067 L118.55624633367609,34.78132498844688 L118.1428045186343,33.954425586569045 L117.93607572521627,33.54097588563012 L117.52262602427736,33.33425497810923 L117.31590511675645,33.12753407058834 L117.31590511675645,32.9208052771703 L116.07556389983684,30.44011495743392 L116.07556389983684,30.23339404991303 L116.07556389983684,29.613223441453215 L116.07556389983684,29.19977374051429 L116.07556389983684,28.579603132054473 L116.07556389983684,28.37287433863645 L116.07556389983684,28.16615343111556" transform="matrix(0.990625637,0.13660471,-0.13660471,0.990625637,14.875062545,-22.582540798)" fill="none" stroke="#fefefe" stroke-width="8" stroke-linecap="round" stroke-linejoin="round"/>
	</g>
	<g>
		<path d="M100.7779801663767,83.77492923112636 L100.5712592588558,84.18837104616816 L100.5712592588558,84.6018286330042 L100.15780955791688,85.22199135556689 L99.95108076449885,85.63544894240295 L99.74435985697797,86.46233257248652 L99.53763894945706,86.46233257248652 L99.53763894945706,86.66906925180167 L99.12418924851815,86.87579015932258 L99.12418924851815,87.28923197436436 L98.91746045510011,87.9094104687213 L98.71073954757922,88.3228522837631 L98.09056893911941,89.14975168564094 L98.09056893911941,89.97665108751879 L97.88384014570138,90.39009290256057 L97.6771192381805,91.42371321195931 L97.47039833065959,92.25061261383713 L97.26366953724157,93.28423292323588 L96.85021983630264,93.69767473827766 L96.64349892878175,94.7312950476764 L96.64349892878175,95.55819444955425 L96.43677802126086,95.9716520363903 L96.43677802126086,97.41871416083082 L96.23004922784283,98.45233447022956 L96.23004922784283,98.86577628527134 L95.81659952690391,99.69267568714919 L95.81659952690391,100.10613327398524 L95.81659952690391,100.93301690406882 L95.60987861938301,102.5868157078245 L95.60987861938301,103.00025752286628 L95.40315771186212,103.82715692474413 L95.40315771186212,104.24061451158018 L95.40315771186212,104.86077723414284 L95.1964289184441,104.86077723414284" transform="matrix(1,0,0,1,4,-8)" fill="none" stroke="#fefefe" stroke-width="8" stroke-linecap="round" stroke-linejoin="round"/>
	</g>
</g></g></svg>