<svg xmlns="http://www.w3.org/2000/svg" viewBox="0 0 256 256" width="256" height="256"><defs><clipPath id="artboard-13901884091707561081"><rect x="0" y="0" width="256" height="256"/></clipPath></defs><g>
<rect fill="#e987ff" x="0" y="0" width="256" height="256"/>
<g clip-path="url(#artboard-13901884091707561081)">
	<g transform="matrix(1,0,0,1,-6.084435161,0)">
		<path d="M6.084435160836904,24.99999999999997 C6.084435160836904,11.205380555524627 17.28981571636156,-0.00000000000002842170943040401 31.084435160836904,-0.00000000000002842170943040401 L237.0844351608369,-0.00000000000002842170943040401 C250.87905460531226,-0.00000000000002842170943040401 262.0844351608369,11.205380555524627 262.0844351608369,24.99999999999997 L262.0844351608369,230.99999999999997 C262.0844351608369,244.7946194444753 250.87905460531226,255.99999999999997 237.0844351608369,255.99999999999997 L31.084435160836904,255.99999999999997 C17.28981571636156,255.99999999999997 6.084435160836904,244.7946194444753 6.084435160836904,230.99999999999997 L6.084435160836904,24.99999999999997 Z" fill="#e887ff"/>
	</g>
	<g transform="matrix(1,0,0,1,-6.084435161,0)">
		<path d="M185.05073255774852,87.10678464271564 C185.05073255774852,87.10678464271564 136.66430795582852,57.32233213308825 136.66430795582852,57.32233213308825 C136.66430795582852,57.32233213308825 125.7193563389532,33.04467847267888 122.19783690303922,30.92508375915392 C116.38740856795499,27.427799871761835 103.9284670604322,20.17513456476354 93.01056641859677,17.56581855549959 C81.81839124957787,14.890952497907591 -35.636111620392754,97.38788507347621 -35.57094035182304,129.39581722306596 C-35.50878009764416,159.9249329181284 -10.543104596704538,185.97898819149012 1.1171461186616796,185.7296697686038 C21.848955430584382,185.2863841028491 54.24509105068057,156.14881168148332 53.9244130388202,154.858456185764 C53.60373502695982,153.56810069004464 109.94251094463331,185.87397716643125 109.94251094463331,185.87397716643125" fill="#fefefe"/>
		<path d="M142.0707704160299,61.23724105479422 C142.0707704160299,61.23724105479422 191.04109324813294,90.05159821880437 191.04109324813294,90.05159821880437 C191.04109324813294,90.05159821880437 217.61794311228428,88.35823338838838 221.13946254819828,90.47782810191333 C226.94989088328248,93.97511198930543 239.19114773874344,101.5894411220552 246.60785320028748,110.01568373415071 C254.2108777583737,118.65360657527395 236.2949959185299,261.0626136875721 207.9803022621994,275.988768280606 C180.97379167399686,290.22531122013356 146.26373883268636,280.3606783755195 141.02558593170167,269.94024841284073 C131.71220239126046,251.41282801614148 142.2944885159818,209.14554811666693 143.5848440117012,208.82487010480656 C144.87519950742052,208.50419209294614 89.95408867355798,173.84299027327518 89.95408867355798,173.84299027327518" fill="#fefefe"/>
	</g>
	<g transform="matrix(1,0,0,1,-6.084435161,0)">
		<path d="M78.25667213759434,67.31391283173885 C80.14225597637147,64.18118179880649 83.99475392744647,63.033368270040974 86.85186873084074,64.75305931347167 L94.3081188533033,69.24095967293384 C97.16523365669757,70.96065071636453 97.95440904669869,74.90227710196613 96.06882520792155,78.03500813489848 L73.70637231284195,115.18824880031345 C71.82078847406481,118.3209798332458 67.96829052298982,119.46879336201133 65.11117571959555,117.74910231858063 L57.65492559713299,113.26120195911845 C54.79781079373872,111.54151091568777 54.0086354037376,107.59988453008616 55.89421924251473,104.46715349715382 L78.25667213759434,67.31391283173885 Z" fill="#e987ff"/>
		<path d="M73.70637231284195,115.18824880031345 C71.82078847406481,118.3209798332458 67.96829052298982,119.46879336201133 65.11117571959555,117.74910231858064 L57.654925597132994,113.26120195911847 C54.797810793738726,111.54151091568777 54.0086354037376,107.59988453008617 55.89421924251473,104.46715349715382 L78.25667213759434,67.31391283173885 C80.14225597637147,64.18118179880649 83.99475392744647,63.03336827004097 86.85186873084074,64.75305931347165 L94.30811885330328,69.24095967293383 C97.16523365669755,70.96065071636453 97.95440904669869,74.90227710196612 96.06882520792155,78.03500813489848 L73.70637231284195,115.18824880031345 Z" fill="#e987ff"/>
	</g>
	<g transform="matrix(1,0,0,1,-6.084435161,0)">
		<path d="M184.91827333556998,168.95244717843258 C190.0573534914206,172.04564809041187 191.71922285943774,178.73273667421608 188.62602194745844,183.87181683006668 C185.53282103547915,189.0108969859173 178.84573245167493,190.67276635393443 173.70665229582434,187.57956544195514 C168.56757213997372,184.48636452997584 166.90570277195658,177.79927594617163 169.99890368393588,172.66019579032104 C173.09210459591517,167.52111563447042 179.77919317971939,165.85924626645328 184.91827333556998,168.95244717843258 Z" fill="#e987ff"/>
		<path d="M181.3080964025752,154.42568989007387 C178.2148954905959,159.5647700459245 171.52780690679168,161.22663941394163 166.3887267509411,158.13343850196233 C161.24964659509047,155.04023758998304 159.58777722707333,148.35314900617882 162.68097813905263,143.21406885032823 C165.77417905103192,138.0749886944776 172.46126763483613,136.41311932646047 177.60034779068673,139.50632023843977 C182.73942794653735,142.59952115041906 184.40129731455448,149.28660973422328 181.3080964025752,154.42568989007387 Z" fill="#e987ff"/>
		<path d="M195.8348536909339,150.81551295707908 C190.69577353508328,147.72231204509978 189.03390416706614,141.03522346129557 192.12710507904544,135.89614330544498 C195.22030599102473,130.75706314959436 201.90739457482894,129.09519378157722 207.04647473067953,132.18839469355652 C212.18555488653016,135.2815956055358 213.8474242545473,141.96868418934002 210.754223342568,147.10776434519062 C207.6610224305887,152.24684450104124 200.9739338467845,153.90871386905837 195.8348536909339,150.81551295707908 Z" fill="#e987ff"/>
		<path d="M199.4450306239287,165.3422702454378 C202.53823153590798,160.20319008958717 209.2253201197122,158.54132072157003 214.3644002755628,161.63452163354933 C219.5034804314134,164.72772254552862 221.16534979943054,171.41481112933283 218.07214888745125,176.55389128518343 C214.97894797547195,181.69297144103405 208.29185939166774,183.35484080905118 203.15277923581715,180.2616398970719 C198.01369907996653,177.1684389850926 196.3518297119494,170.48135040128838 199.4450306239287,165.3422702454378 Z" fill="#e987ff"/>
	</g>
	<g transform="matrix(1,0,0,1,-6.084435161,0)">
		<path d="M99.91869020950526,93.52623072840223 C103.05142124243761,95.41181456717936 104.19923477120312,99.26431251825436 102.47954372777244,102.12142732164862 L97.99164336831026,109.57767744411119 C96.27195232487958,112.43479224750547 92.33032593927797,113.22396763750659 89.19759490634561,111.33838379872945 L52.04435424093066,88.97593090364984 C48.9116232079983,87.0903470648727 47.763809679232786,83.23784911379771 49.48350072266348,80.38073431040344 L53.97140108212565,72.92448418794088 C55.69109212555634,70.0673693845466 59.63271851115795,69.27819399454548 62.765449544090295,71.16377783332261 L99.91869020950526,93.52623072840223 Z" fill="#e987ff"/>
		<path d="M52.04435424093066,88.97593090364984 C48.9116232079983,87.09034706487272 47.76380967923278,83.23784911379771 49.48350072266347,80.38073431040344 L53.971401082125645,72.92448418794088 C55.69109212555634,70.06736938454661 59.63271851115794,69.27819399454548 62.76544954409029,71.16377783332261 L99.91869020950526,93.52623072840223 C103.05142124243761,95.41181456717935 104.19923477120314,99.26431251825436 102.47954372777244,102.12142732164862 L97.99164336831026,109.57767744411119 C96.27195232487958,112.43479224750546 92.33032593927797,113.22396763750659 89.19759490634563,111.33838379872945 L52.04435424093066,88.97593090364984 Z" fill="#e987ff"/>
	</g>
</g></g></svg>